<svg width="24" height="24" viewBox="0 0 24 24" fill="none" xmlns="http://www.w3.org/2000/svg">
<path d="M5 12H5.01M12 12H12.01M19 12H19.01M6 12C6 12.5523 5.55228 13 5 13C4.44772 13 4 12.5523 4 12C4 11.4477 4.44772 11 5 11C5.55228 11 6 11.4477 6 12ZM13 12C13 12.5523 12.5523 13 12 13C11.4477 13 11 12.5523 11 12C11 11.4477 11.4477 11 12 11C12.5523 11 13 11.4477 13 12ZM20 12C20 12.5523 19.5523 13 19 13C18.4477 13 18 12.5523 18 12C18 11.4477 18.4477 11 19 11C19.5523 11 20 11.4477 20 12Z" stroke="url(#paint0_linear_3_8814)" stroke-width="2" stroke-linecap="round" stroke-linejoin="round"/>
<defs>
<linearGradient id="paint0_linear_3_8814" x1="12" y1="11" x2="12" y2="13" gradientUnits="userSpaceOnUse">
<stop stop-color="#00A3FF"/>
<stop offset="0.302083" stop-color="#0085FF"/>
<stop offset="0.53125" stop-color="#001AFF"/>
<stop offset="0.734375" stop-color="#6100FF"/>
<stop offset="1" stop-color="#9104FF"/>
</linearGradient>
</defs>
</svg>
