<svg width="24" height="24" viewBox="0 0 24 24" fill="none" xmlns="http://www.w3.org/2000/svg">
<path d="M15 12C15 13.6569 13.6569 15 12 15C10.3431 15 9 13.6569 9 12C9 10.3431 10.3431 9 12 9C13.6569 9 15 10.3431 15 12Z" stroke="url(#paint0_linear_3_8900)" stroke-width="2" stroke-linecap="round" stroke-linejoin="round"/>
<path d="M2.45825 12C3.73253 7.94288 7.52281 5 12.0004 5C16.4781 5 20.2684 7.94291 21.5426 12C20.2684 16.0571 16.4781 19 12.0005 19C7.52281 19 3.73251 16.0571 2.45825 12Z" stroke="url(#paint1_linear_3_8900)" stroke-width="2" stroke-linecap="round" stroke-linejoin="round"/>
<defs>
<linearGradient id="paint0_linear_3_8900" x1="12.0004" y1="5" x2="12.0004" y2="19" gradientUnits="userSpaceOnUse">
<stop stop-color="#00A3FF"/>
<stop offset="0.302083" stop-color="#0085FF"/>
<stop offset="0.53125" stop-color="#001AFF"/>
<stop offset="0.734375" stop-color="#6100FF"/>
<stop offset="1" stop-color="#9104FF"/>
</linearGradient>
<linearGradient id="paint1_linear_3_8900" x1="12.0004" y1="5" x2="12.0004" y2="19" gradientUnits="userSpaceOnUse">
<stop stop-color="#00A3FF"/>
<stop offset="0.302083" stop-color="#0085FF"/>
<stop offset="0.53125" stop-color="#001AFF"/>
<stop offset="0.734375" stop-color="#6100FF"/>
<stop offset="1" stop-color="#9104FF"/>
</linearGradient>
</defs>
</svg>
