<svg width="24" height="24" viewBox="0 0 24 24" fill="none" xmlns="http://www.w3.org/2000/svg">
<path d="M17 16V18C17 19.1046 16.1046 20 15 20H5C3.89543 20 3 19.1046 3 18V11C3 9.89543 3.89543 9 5 9H7M10 5H9C7.89543 5 7 5.89543 7 7V14C7 15.1046 7.89543 16 9 16H19C20.1046 16 21 15.1046 21 14V7C21 5.89543 20.1046 5 19 5H18M17 9L14 12M14 12L11 9M14 12L14 3" stroke="url(#paint0_linear_3_9016)" stroke-width="2" stroke-linecap="round" stroke-linejoin="round"/>
<defs>
<linearGradient id="paint0_linear_3_9016" x1="12" y1="3" x2="12" y2="20" gradientUnits="userSpaceOnUse">
<stop stop-color="#00A3FF"/>
<stop offset="0.302083" stop-color="#0085FF"/>
<stop offset="0.53125" stop-color="#001AFF"/>
<stop offset="0.734375" stop-color="#6100FF"/>
<stop offset="1" stop-color="#9104FF"/>
</linearGradient>
</defs>
</svg>
