<svg width="24" height="24" viewBox="0 0 24 24" fill="none" xmlns="http://www.w3.org/2000/svg">
<path d="M3 6L6 7M6 7L3 16C4.77253 17.3334 7.22866 17.3334 9.00119 16M6 7L9.00006 16M6 7L12 5M18 7L21 6M18 7L15 16C16.7725 17.3334 19.2287 17.3334 21.0012 16M18 7L21.0001 16M18 7L12 5M12 3V5M12 21V5M12 21H9M12 21H15" stroke="url(#paint0_linear_3_8864)" stroke-width="2" stroke-linecap="round" stroke-linejoin="round"/>
<defs>
<linearGradient id="paint0_linear_3_8864" x1="12.0006" y1="3" x2="12.0006" y2="21" gradientUnits="userSpaceOnUse">
<stop stop-color="#00A3FF"/>
<stop offset="0.302083" stop-color="#0085FF"/>
<stop offset="0.53125" stop-color="#001AFF"/>
<stop offset="0.734375" stop-color="#6100FF"/>
<stop offset="1" stop-color="#9104FF"/>
</linearGradient>
</defs>
</svg>
