<?xml version="1.0"?>
<svg width="545.56323" height="523.50056" xmlns="http://www.w3.org/2000/svg" xmlns:svg="http://www.w3.org/2000/svg">
 <g class="layer">
  <title>Layer 1</title>
  <path d="m491.3,507.17c2.07,0.13 3.21,-2.44 1.65,-3.94l-0.16,-0.61c0.02,-0.05 0.04,-0.1 0.07,-0.15c2.08,-4.98 9.17,-4.95 11.24,0.04c1.84,4.43 4.18,8.86 4.75,13.55c0.26,2.06 0.14,4.17 -0.31,6.2c4.3,-9.41 6.57,-19.69 6.57,-30.02c0,-2.6 -0.14,-5.2 -0.43,-7.79c-0.24,-2.12 -0.57,-4.22 -1,-6.31c-2.3,-11.28 -7.29,-22.02 -14.5,-30.99c-3.46,-1.89 -6.35,-4.85 -8.09,-8.39c-0.63,-1.28 -1.12,-2.66 -1.35,-4.06c0.39,0.05 1.49,-5.95 1.19,-6.32c0.55,-0.83 1.53,-1.24 2.13,-2.06c2.98,-4.04 7.09,-3.34 9.24,2.16c4.58,2.31 4.62,6.15 1.81,9.84c-1.79,2.34 -2.03,5.52 -3.6,8.03c0.16,0.21 0.33,0.41 0.49,0.61c2.96,3.8 5.52,7.88 7.68,12.17c-0.61,-4.76 0.29,-10.5 1.83,-14.21c1.74,-4.21 5.02,-7.77 7.91,-11.41c3.46,-4.38 10.57,-2.47 11.18,3.08c0.01,0.06 0.01,0.11 0.02,0.16c-0.43,0.25 -0.85,0.5 -1.26,0.77c-2.34,1.55 -1.53,5.18 1.24,5.61l0.06,0c-0.15,1.55 -0.42,3.08 -0.8,4.58c3.7,14.32 -4.29,19.53 -15.71,19.77c-0.25,0.13 -0.49,0.26 -0.75,0.38c1.16,3.25 2.08,6.59 2.77,9.98c0.61,2.99 1.04,6.01 1.28,9.05c0.3,3.83 0.27,7.68 -0.05,11.5l0.02,-0.14c0.82,-4.21 3.1,-8.14 6.42,-10.87c4.95,-4.06 11.94,-5.55 17.27,-8.82c2.57,-1.57 5.86,0.46 5.41,3.44l-0.02,0.14c-0.79,0.32 -1.57,0.7 -2.32,1.12c-0.43,0.24 -0.85,0.5 -1.26,0.77c-2.34,1.54 -1.53,5.17 1.24,5.6l0.07,0.01c0.04,0.01 0.08,0.01 0.13,0.02c-1.37,3.23 -3.27,6.24 -5.64,8.83c-2.32,12.49 -12.26,13.68 -22.89,10.04l-0.01,0c-1.16,5.06 -2.86,10.01 -5.04,14.73l-18.02,0c-0.07,-0.2 -0.13,-0.41 -0.18,-0.61c1.66,0.1 3.34,0.01 4.98,-0.3c-1.34,-1.64 -2.67,-3.29 -4.01,-4.93c-0.03,-0.03 -0.06,-0.07 -0.08,-0.1c-0.68,-0.84 -1.37,-1.67 -2.04,-2.51l0,0c-0.05,-2.58 0.26,-5.15 0.87,-7.64l0,0z" fill="#f2f2f2" id="svg_1"/>
  <path d="m159.75,522.31c0,0.66 0.53,1.19 1.19,1.19l383.29,0c0.66,0 1.19,-0.53 1.19,-1.19c0,-0.66 -0.53,-1.19 -1.19,-1.19l-383.29,0c-0.66,0 -1.19,0.53 -1.19,1.19z" fill="#ccc" id="svg_2"/>
  <g id="svg_3">
   <path d="m217.91,522.99l-176.42,0c-21.51,0 -39.01,-17.5 -39.01,-39.01l0,-379.15c0,-21.51 17.5,-39.01 39.01,-39.01l176.42,0c21.52,0 39.02,17.5 39.02,39.01l0,379.15c0,21.51 -17.5,39.01 -39.02,39.01z" fill="#ff7f00" id="svg_4" transform="matrix(1 0 0 1 0 0)"/>
   <path d="m256.93,205.28c-0.91,0 -1.65,0.74 -1.65,1.65l0,52.82c0,0.91 0.74,1.65 1.65,1.65s1.65,-0.74 1.65,-1.65l0,-52.82c0,-0.91 -0.74,-1.65 -1.65,-1.65z" fill="#3f3d56" id="svg_5"/>
   <path d="m253.21,104.83l0,379.14c0,18.73 -14.57,34.04 -33,35.23l-0.01,0c-0.27,0.02 -0.54,0.04 -0.82,0.04c-0.49,0.03 -0.97,0.04 -1.47,0.04c0,0 -1.82,-0.14 -5.13,-0.38c-3.35,-0.25 -8.23,-0.62 -14.31,-1.11c-1.83,-0.14 -3.75,-0.3 -5.78,-0.46c-4.04,-0.33 -8.48,-0.69 -13.24,-1.11c-1.9,-0.15 -3.87,-0.33 -5.87,-0.5c-10.25,-0.88 -21.73,-1.91 -33.84,-3.09c-2.04,-0.19 -4.1,-0.38 -6.18,-0.59c-0.55,-0.06 -1.1,-0.11 -1.65,-0.17c-8.64,-0.85 -125.72,-23.47 -125.72,-27.9l0,-379.14c0,-19.5 15.8,-35.3 35.3,-35.3l21.08,0c3.37,0 6.07,2.62 6.36,5.98c0.03,0.22 0.05,0.45 0.09,0.67c0.61,3.37 3.71,5.73 7.14,5.73l107.08,0c3.44,0 6.53,-2.36 7.14,-5.73c0.04,-0.22 0.07,-0.45 0.09,-0.67c0.29,-3.36 3,-5.98 6.36,-5.98l21.08,0c19.5,0 35.3,15.8 35.3,35.3z" fill="#fff" id="svg_6"/>
   <path d="m1.65,165.67c-0.91,0 -1.65,0.74 -1.65,1.65l0,13.2c0,0.91 0.74,1.65 1.65,1.65s1.65,-0.74 1.65,-1.65l0,-13.2c0,-0.91 -0.74,-1.65 -1.65,-1.65z" fill="#ff7f00" id="svg_7"/>
   <path d="m1.65,205.28c-0.91,0 -1.65,0.74 -1.65,1.65l0,25.58c0,0.91 0.74,1.65 1.65,1.65s1.65,-0.74 1.65,-1.65l0,-25.58c0,-0.91 -0.74,-1.65 -1.65,-1.65z" fill="#ff7f00" id="svg_8" transform="matrix(1 0 0 1 0 0)"/>
   <path d="m1.65,241.59c-0.91,0 -1.65,0.74 -1.65,1.65l0,25.58c0,0.91 0.74,1.65 1.65,1.65s1.65,-0.74 1.65,-1.65l0,-25.58c0,-0.91 -0.74,-1.65 -1.65,-1.65z" fill="#ff7f00" id="svg_9"/>
   <rect fill="#e6e6e6" height="4.13" id="svg_10" rx="0.31" ry="0.31" width="32.18" x="30.12" y="75.31"/>
   <circle cx="202.05" cy="76.13" fill="#e6e6e6" id="svg_11" r="3.3"/>
   <circle cx="211.13" cy="76.13" fill="#e6e6e6" id="svg_12" r="3.3"/>
   <circle cx="220.2" cy="76.13" fill="#e6e6e6" id="svg_13" r="3.3"/>
  </g>
  <path d="m199.29,298.52l-140,0c-2.21,0 -4,-1.8 -4,-4s1.79,-4 4,-4l140,0c2.2,0 4,1.79 4,4s-1.8,4 -4,4z" fill="#e6e6e6" id="svg_14"/>
  <circle cx="129.79" cy="395.52" fill="#ffa500" id="svg_15" r="58"/>
  <path d="m139.01,376.58c-4.9,0.2 -10.43,0.54 -14.05,4.29c-3.14,3.26 -3.83,8.11 -0.64,11.59c3.19,3.49 8.16,3.97 11.85,6.69c4.32,3.2 3.69,9.53 -0.5,12.56c-4.93,3.58 -11.31,1.91 -15.82,-1.49c-1.16,-0.87 -2.28,1.08 -1.14,1.94c4.05,3.05 9.32,4.75 14.32,3.29c4.51,-1.32 8.01,-5 8.37,-9.78c0.17,-2.29 -0.48,-4.6 -1.9,-6.41c-1.5,-1.9 -3.66,-3.07 -5.84,-4.02c-3.76,-1.64 -10.23,-3.77 -9.14,-9.11c1.33,-6.47 9.21,-7.08 14.49,-7.3c1.44,-0.06 1.45,-2.31 0,-2.25l0,0z" fill="#fff" id="svg_16"/>
  <path d="m129.93,373.52l-0.22,49.39c0,1.45 2.25,1.45 2.25,0l0.22,-49.39c0,-1.45 -2.25,-1.45 -2.25,0l0,0z" fill="#fff" id="svg_17"/>
  <path d="m437.09,0l-285.96,0c-10.49,0 -19.02,8.53 -19.02,19.02l0,195.96c0,10.49 8.53,19.02 19.02,19.02l285.96,0c10.49,0 19.02,-8.53 19.02,-19.02l0,-195.96c0,-10.49 -8.53,-19.02 -19.02,-19.02z" fill="#fff" id="svg_18"/>
  <circle cx="292.79" cy="84.52" fill="#ffa500" id="svg_19" r="32"/>
  <path d="m298.86,70.24c-3.96,0.16 -8.42,0.41 -11.42,3.36c-2.48,2.44 -3.35,6.24 -1.06,9.12c2.4,3.02 6.39,3.6 9.52,5.53c1.95,1.2 3.24,3.03 3.29,5.37c0.04,2.19 -0.98,4.23 -2.67,5.61c-4.14,3.37 -9.8,1.97 -13.73,-0.97c-0.77,-0.58 -1.52,0.72 -0.75,1.29c3.25,2.44 7.43,3.86 11.48,2.81c3.72,-0.97 6.72,-3.9 7.12,-7.81c0.43,-4.12 -2.28,-6.93 -5.79,-8.54c-3.21,-1.47 -8.84,-3.04 -8.31,-7.62c0.67,-5.82 7.79,-6.47 12.32,-6.65c0.96,-0.04 0.97,-1.54 0,-1.5l0,0z" fill="#fff" id="svg_20"/>
  <path d="m291.98,67.52l-0.18,41.15c-0.01,0.97 1.49,0.97 1.5,0l0.18,-41.15c0,-0.97 -1.5,-0.97 -1.5,0l0,0z" fill="#fff" id="svg_21"/>
  <path d="m437.09,0l-285.96,0c-10.49,0 -19.02,8.53 -19.02,19.02l0,195.96c0,10.49 8.53,19.02 19.02,19.02l285.96,0c10.49,0 19.02,-8.53 19.02,-19.02l0,-195.96c0,-10.49 -8.53,-19.02 -19.02,-19.02zm17.02,214.98c0,9.39 -7.63,17.02 -17.02,17.02l-285.96,0c-9.39,0 -17.02,-7.63 -17.02,-17.02l0,-195.96c0,-9.39 7.63,-17.02 17.02,-17.02l285.96,0c9.39,0 17.02,7.63 17.02,17.02l0,195.96z" fill="#3f3d56" id="svg_22"/>
  <g id="svg_23">
   <path d="m261.14,19.35l-28.06,0c-1.41,0 -2.56,1.15 -2.56,2.56c0,1.42 1.15,2.57 2.56,2.57l28.06,0c1.41,0 2.56,-1.15 2.56,-2.57c0,-1.41 -1.15,-2.56 -2.56,-2.56z" fill="#e6e6e6" id="svg_24"/>
   <path d="m308.14,19.35l-28.06,0c-1.41,0 -2.56,1.15 -2.56,2.56c0,1.42 1.15,2.57 2.56,2.57l28.06,0c1.41,0 2.56,-1.15 2.56,-2.57c0,-1.41 -1.15,-2.56 -2.56,-2.56z" fill="#e6e6e6" id="svg_25"/>
   <path d="m355.14,19.35l-28.06,0c-1.41,0 -2.56,1.15 -2.56,2.56c0,1.42 1.15,2.57 2.56,2.57l28.06,0c1.41,0 2.56,-1.15 2.56,-2.57c0,-1.41 -1.15,-2.56 -2.56,-2.56z" fill="#e6e6e6" id="svg_26"/>
  </g>
  <path d="m401.42,134.52l-214.62,0c-8.93,0 -16.19,7.26 -16.19,16.19l0,14.62c0,8.93 7.26,16.19 16.19,16.19l214.62,0c8.93,0 16.19,-7.26 16.19,-16.19l0,-14.62c0,-8.93 -7.26,-16.19 -16.19,-16.19z" fill="#ffa500" id="svg_27"/>
  <path d="m73.18,211.49l-8.23,-3.9c3.37,4.71 6.28,12.07 7.84,17.93c2.64,-5.46 6.89,-12.13 11.09,-16.12l-8.69,2.24c5.36,-26.27 25.52,-45.12 48.6,-45.12l0,-2c-24.11,0 -45.14,19.64 -50.61,46.97z" fill="#ff7f00" id="svg_28" transform="matrix(1 0 0 1 0 0)"/>
  <path d="m111.06,251.52l-52,0c-2.21,0 -4,-1.8 -4,-4s1.79,-4 4,-4l52,0c2.2,0 4,1.79 4,4s-1.8,4 -4,4z" fill="#e6e6e6" id="svg_29"/>
  <g id="svg_30">
   <polygon fill="#ffb6b6" id="svg_31" points="456.97872 238.488 456.45423 279.32691 446.29273 315.73235 438.16969 312.70231 441.77632 279.33303 441.30222 234.1757 456.97872 238.488"/>
   <ellipse cx="440.63" cy="320.58" fill="#ffb6b6" id="svg_32" rx="9.63" ry="5.72" transform="translate(46.30757 696.65636) rotate(-79.68097)"/>
   <path d="m444.65,189.86s17.41,0.24 17.39,9.49c-0.01,5.22 -1.13,52.62 -4.25,81.42c-2.41,22.2 -7,28 -7,28l-11,-25l4.86,-93.91z" fill="#e6e6e6" id="svg_33"/>
   <path d="m444.2,273.3l-58.79,0c4.93,-11 7.96,-21.47 3.22,-29.8l55.57,-3.22c-2.78,11.25 -3.12,22.28 0,33.02z" fill="#ffb6b6" id="svg_34"/>
   <path d="m436.95,175.86l-23.35,-1.61l-9.66,12.08l-4.9,0.89c-7.35,1.33 -12.58,7.88 -12.25,15.34l1.91,43.31l55.82,4.07l13.37,-56.4l-16.11,-6.41l-4.83,-11.27z" fill="#e6e6e6" id="svg_35"/>
   <g id="svg_36">
    <path d="m294.53,188.92c1.66,1.49 2.84,3.23 3.47,4.92l16.68,13.21l-6.52,7.75l-16.22,-14.23c-1.74,-0.44 -3.6,-1.43 -5.26,-2.93c-3.78,-3.4 -5.09,-8.11 -2.93,-10.52c2.17,-2.41 7,-1.6 10.78,1.8l0,0z" fill="#ffb6b6" id="svg_37"/>
    <path d="m412.47,200.04l0,0l-63.92,43.16l-45.82,-31.89l6.88,-12.46l36.06,20.96l33.26,-25.54c11.84,-11.12 26.68,-8.96 33.54,5.77z" fill="#e6e6e6" id="svg_38"/>
   </g>
   <circle cx="423.89" cy="153.3" fill="#ffb6b6" id="svg_39" r="17.33"/>
   <path d="m447.44,149.05l0,3.36l-19.54,-5.5l-14.65,3.07c-0.17,-2.23 -0.83,-4.42 -1.93,-6.36c0.77,3.11 0.85,5.51 0.04,6.76l-1.97,0.41c-0.32,-0.87 -0.94,-1.63 -1.75,-2.09c-0.08,-0.05 -0.18,-0.09 -0.27,-0.06c-0.14,0.05 -0.15,0.23 -0.15,0.37c0.02,0.74 0.04,1.48 0.07,2.22l-5.66,1.18l0,-3.36c-5.43,-12.22 8.88,-22.79 22.91,-22.9c6.33,-0.05 12.05,2.56 16.2,6.7c4.14,4.15 6.7,9.87 6.7,16.2z" fill="#2f2e41" id="svg_40"/>
   <path d="m458.43,188.44l-1.47,-0.12c0.1,-0.48 0.21,-0.96 0.3,-1.44c0.82,-4.05 -0.98,-9.2 -1.11,-13.1c-0.7,4.12 0.49,9.17 -0.74,13.08c-0.13,0.43 -5.47,3.23 -5.62,3.66c-5.91,-2.17 -12.06,-9.07 -19.03,-5.04c-4.12,2.39 -8.82,1.34 -13.5,0.25c-1.16,-0.27 -1.32,-5.99 -2.47,-6.21c-2.05,-0.41 -5.07,4.79 -7,5l8,-31c0,-16.87 -1.56,-34.56 19.8,-28.6c5.37,1.5 10.69,2.68 14.66,7.11c3.96,4.44 6.79,10.65 7.79,17.71c0.6,4.27 4.36,18.74 0.39,38.7z" fill="#2f2e41" id="svg_41"/>
   <g id="svg_42">
    <polygon fill="#ff7f00" id="svg_43" points="444.63823 500.18039 435.10166 500.40544 429.78582 457.56122 443.85939 457.22818 444.63823 500.18039"/>
    <path d="m411.92,520.08l0,0c0,1.61 1.14,2.91 2.55,2.91l18.93,0s1.87,-7.48 9.46,-10.71l0.52,10.71l9.77,0l-1.18,-17.22s2.61,-9.21 -2.82,-13.92c-5.42,-4.71 -1.03,-4.06 -1.03,-4.06l-2.13,-10.66l-14.76,1.74l-0.11,16.73l-7.16,16.61l-10.5,5.19c-0.94,0.46 -1.54,1.51 -1.54,2.68l0,0z" fill="#ff7f00" id="svg_44"/>
   </g>
   <g id="svg_45">
    <polygon fill="#ffb7b7" id="svg_46" points="415.62444 493.19838 406.45713 495.83604 390.44322 455.74315 403.97162 451.84972 415.62444 493.19838"/>
    <path d="m389.03,520.75l0,0c0.4,1.55 1.84,2.53 3.21,2.17l18.31,-4.8s-0.1,-7.72 6.43,-12.76l3.22,10.22l9.45,-2.47l-5.52,-16.36s0.19,-9.58 -6.25,-12.76c-6.45,-3.18 -2.03,-3.66 -2.03,-3.66l-4.77,-9.77l-13.83,5.43l4.14,16.21l-2.71,17.88l-8.84,7.69c-0.79,0.68 -1.11,1.85 -0.81,2.98l0,0z" fill="#ff7f00" id="svg_47"/>
   </g>
   <path d="m438.79,270.77l6,2c9.38,17.32 13.36,40.33 12.83,68.08l-10.66,124.61l-17.43,0l-12.76,-138.82l-22.5,52.1l16.46,86.72l-16.46,1.68l-33.16,-90.18l23.09,-104.8l54.59,-1.39z" fill="#ff7f00" id="svg_48" transform="matrix(1 0 0 1 0 0)"/>
  </g>
 </g>
</svg>