<svg xmlns="http://www.w3.org/2000/svg" width="235" height="44" viewBox="0 0 235 44">
    <g fill="none" fill-rule="evenodd">
        <path fill="#93C840" d="M32 10V0H10.495C4.574 0 0 4.304 0 10h32zM10 12H0v21.497C0 39.427 4.304 44 10 44V12z"/>
        <path fill="#FFF" d="M12 33v10h21.494C39.425 43 44 38.696 44 33H12zM34 32h10V10.503C44 4.573 39.696 0 34 0v32z"/>
        <path fill="#FFF" fill-rule="nonzero" d="M75.712 4.626H65.565a2.616 2.616 0 0 0-1.692.454c-.378.402-.56.93-.507 1.461v4.423h10.782v4.166h-10.85V26h-6.291V5.377c-.078-1.468.54-2.894 1.69-3.908C59.96.462 61.592-.058 63.257.016 67.509-.05 71.763.089 76 .43l-.288 4.196zM78.707.015h2.636c.458-.05.914.112 1.235.435.32.323.471.774.408 1.22v2.082a1.45 1.45 0 0 1-.408 1.222c-.32.325-.776.487-1.235.441h-2.636a1.523 1.523 0 0 1-1.27-.42 1.451 1.451 0 0 1-.422-1.243V1.67c-.067-.456.09-.916.423-1.242a1.515 1.515 0 0 1 1.269-.413zM82.92 27h-5.749V8.276h5.749V27zM97.37 13.282c-1.957-.083-3.909.27-5.713 1.03V27H86V8.492h4.39l.502 2.474C93.466 8.786 95.53 7.7 98 8.072l-.63 5.21zM108.573 19.517l-4.838-1.27a6.984 6.984 0 0 1-3.698-2.108 5.87 5.87 0 0 1-1.025-3.7c0-1.98.623-3.382 1.87-4.208 1.246-.805 3.37-1.231 6.387-1.231 3.005.006 6.005.25 8.97.732l-.393 3.668c-3.28-.059-5.77-.085-7.47-.08h-1.91a7.03 7.03 0 0 0-1.067.137c-.352.08-.565.2-.647.37-.088.24-.127.494-.115.748v.346c.015.101.048.2.098.29l.14.217c.063.065.135.122.213.169.083.053.17.098.262.136l.353.137.393.137.509.129.574.136 5.01 1.384a7.812 7.812 0 0 1 3.698 1.955 5.216 5.216 0 0 1 1.099 3.604c0 2.268-.667 3.805-2.001 4.61-1.334.804-3.633 1.195-6.896 1.174-2.91.018-5.818-.2-8.692-.652l.353-3.708c.94.059 3.184.086 6.732.08a19.05 19.05 0 0 0 3.952-.25c.554-.122.932-.626.886-1.182v-.346a1.008 1.008 0 0 0-.099-.29 1.289 1.289 0 0 0-.156-.208 1.64 1.64 0 0 0-.254-.177l-.279-.153a2.205 2.205 0 0 0-.377-.153l-.426-.137-.574-.145a5.657 5.657 0 0 1-.582-.169M118.09 8.357V3h5.624v5.584H129v3.876h-5.286v8.78c-.059.548.11 1.095.466 1.513a2.333 2.333 0 0 0 1.606.43h2.41l.611 3.997a16.13 16.13 0 0 1-5.35.81 5.344 5.344 0 0 1-4.017-1.458 5.527 5.527 0 0 1-1.43-4.046V8.357h.08zM151.539 23.28l.461 3.798c-2.535.673-5.16.98-7.789.913-3.755 0-6.396-.897-7.922-2.69-1.526-1.795-2.289-4.89-2.289-9.31 0-4.419.763-7.514 2.289-9.3 1.526-1.785 4.192-2.69 7.922-2.69a31.134 31.134 0 0 1 7.294.808l-.46 3.83c-1.904-.113-4.193-.17-6.834-.17-1.76 0-2.962.539-3.605 1.616-.642 1.078-.967 3.065-.972 5.963 0 2.915.324 4.902.972 5.964.649 1.06 1.85 1.6 3.605 1.616a64.459 64.459 0 0 0 7.328-.307M154.301 14.302l-.471-3.475a46.428 46.428 0 0 1 8.628-.827c2.24 0 3.887.469 4.943 1.406 1.055.935 1.599 2.565 1.599 4.882v11.318h-3.927L164.57 25c-1.494 1.931-3.768 3.037-6.158 2.995a5.764 5.764 0 0 1-3.895-1.307 4.54 4.54 0 0 1-1.511-3.632v-1.68a3.967 3.967 0 0 1 1.343-3.194 5.584 5.584 0 0 1 3.727-1.15h5.918v-.786a2.315 2.315 0 0 0-.592-1.77 3.522 3.522 0 0 0-2.135-.455c-1.834 0-4.161.094-6.982.281m3.623 7.446v.654c0 1.183.656 1.779 1.951 1.779a6.772 6.772 0 0 0 4.135-1.655v-2.4h-4.47a1.411 1.411 0 0 0-1.188.427 1.52 1.52 0 0 0-.412 1.228M175.103 10.436l.375 2.424a7.792 7.792 0 0 1 2.931-2.052 9.393 9.393 0 0 1 3.778-.808c3.875 0 5.813 2.986 5.813 8.959 0 3.23-.521 5.452-1.555 6.737-1.034 1.284-2.662 1.914-4.885 1.914a9.236 9.236 0 0 1-5.642-1.615c.11 1.197.143 2.4.097 3.602V34H171V10.436h4.103zm.92 5.09v7.666c1.25.364 2.536.592 3.835.678a2.558 2.558 0 0 0 2.304-.953c.424-.63.635-1.955.635-3.966 0-2.012-.195-3.296-.586-3.991a2.146 2.146 0 0 0-2.052-1.034 8.13 8.13 0 0 0-4.136 1.616v-.017zM191.417 3.013h2.166a1.21 1.21 0 0 1 1.056.367c.277.289.405.697.347 1.1v1.838a1.32 1.32 0 0 1-.35 1.094 1.21 1.21 0 0 1-1.053.365h-2.166a1.21 1.21 0 0 1-1.053-.365 1.32 1.32 0 0 1-.35-1.094V4.48a1.32 1.32 0 0 1 .347-1.1 1.21 1.21 0 0 1 1.056-.367zM194.924 27h-4.817V10.231h4.817V27zM197.009 9.738V5h5.167v4.714H207v3.413h-4.824v7.956c-.055.483.1.966.427 1.333a2.21 2.21 0 0 0 1.474.374h2.22l.56 3.519c-1.58.49-3.232.721-4.89.682a5.006 5.006 0 0 1-3.66-1.284 4.79 4.79 0 0 1-1.298-3.567V9.738zM209.279 14.302l-.465-3.475a46.52 46.52 0 0 1 8.638-.827c2.241 0 3.89.469 4.947 1.406 1.057.938 1.59 2.565 1.601 4.882v11.318h-3.955L219.541 25c-1.488 1.916-3.746 3.02-6.124 2.995a5.758 5.758 0 0 1-3.898-1.308 4.538 4.538 0 0 1-1.513-3.632v-1.68a3.965 3.965 0 0 1 1.345-3.193 5.586 5.586 0 0 1 3.73-1.15h5.916v-.786a2.28 2.28 0 0 0-.585-1.77 3.528 3.528 0 0 0-2.137-.455c-1.841 0-4.173.094-6.996.281m3.634 7.446v.654c0 1.183.648 1.779 1.953 1.779a6.743 6.743 0 0 0 4.13-1.655v-2.4h-4.466c-1.08 0-1.601.571-1.601 1.655M231.097 4v18.099c0 1.133.642 1.7 1.935 1.7h1.383l.585 3.505a9.255 9.255 0 0 1-4.076.68 5.127 5.127 0 0 1-3.598-1.207 4.394 4.394 0 0 1-1.317-3.415V4h5.088z"/>
        <path fill="#93C840" fill-rule="nonzero" d="M63.625 38.255v.089c.699.005 1.362.3 1.818.808.4.606.59 1.319.539 2.035a2.43 2.43 0 0 1-.91 2.197 5.657 5.657 0 0 1-3.021.598c-2.24 0-3.923 0-5.051-.121V33.14c1.033-.08 2.548-.12 4.546-.12a6.255 6.255 0 0 1 3.19.581 2.452 2.452 0 0 1 .892 2.214 2.788 2.788 0 0 1-.488 1.752c-.381.43-.936.68-1.524.687h.009zm-3.662-.808h1.482c.356.039.714-.047 1.01-.242.204-.277.294-.616.252-.953a1.185 1.185 0 0 0-.27-.93 1.829 1.829 0 0 0-1.068-.225H59.97l-.008 2.35zm0 4.507h1.557a1.74 1.74 0 0 0 1.145-.258c.225-.308.324-.685.278-1.058a1.565 1.565 0 0 0-.286-1.131c-.34-.23-.757-.33-1.17-.283H59.97l-.008 2.73zM77.23 41.389h-3.434L73.13 44H70l3.089-10.22a.91.91 0 0 1 .362-.564c.187-.144.419-.22.656-.216h2.811c.237-.004.469.072.657.216.19.137.324.337.378.563L81 44h-3.106l-.664-2.611zm-.564-2.172L75.95 36.4c-.09-.38-.16-.765-.21-1.152h-.438c-.076.406-.151.828-.227 1.152l-.715 2.818h2.306zM93.989 33.01v9.93a.904.904 0 0 1-.26.786.958.958 0 0 1-.802.265h-1.452a1.055 1.055 0 0 1-.688-.198 2.354 2.354 0 0 1-.51-.679l-2.675-4.709a9.09 9.09 0 0 1-.73-1.795h-.136c.086.622.13 1.25.136 1.878v5.503H84.01v-9.93a.912.912 0 0 1 .269-.79.967.967 0 0 1 .81-.261h1.435a1.03 1.03 0 0 1 .68.198c.208.198.382.428.517.679l2.548 4.535c.327.59.61 1.2.85 1.829h.135a26.334 26.334 0 0 1-.136-1.928V33.01h2.87zM100.79 39.3h-.798c.082.334.126.676.13 1.02V44H97V33h3.122v2.918c.004.459-.04.917-.13 1.368h.78L103.376 33h3.39l-2.783 4.335a2.757 2.757 0 0 1-.928.945c.465.257.848.63 1.11 1.078L107 44h-3.47l-2.74-4.7z"/>
    </g>
</svg>
